<svg width="96" height="48" viewBox="0 0 96 48" fill="none" xmlns="http://www.w3.org/2000/svg">
<rect x="1" y="6" width="61" height="40.75" rx="9" fill="#9F990C" stroke="white" stroke-width="2"/>
<rect x="2" y="2" width="61" height="40.75" rx="9" fill="#BAB202" stroke="white" stroke-width="2"/>
<path d="M8.61694 6.41716H13.4616C14.1766 6.41716 14.9163 6.44181 15.6806 6.49112C16.4449 6.54043 17.1907 6.64522 17.918 6.80547C18.6453 6.96573 19.3356 7.20611 19.989 7.52663C20.6423 7.83481 21.2094 8.25394 21.6902 8.78402C22.1833 9.3141 22.5716 9.97362 22.8551 10.7626C23.151 11.5392 23.2989 12.4761 23.2989 13.5732V15.108C23.2989 15.9463 23.1756 16.7167 22.9291 17.4194C22.6949 18.122 22.3805 18.7446 21.986 19.287C21.5915 19.8171 21.1416 20.2608 20.6362 20.6183C20.1307 20.9635 19.613 21.1977 19.0829 21.321V21.4689C20.6485 21.7525 21.8258 22.4983 22.6147 23.7064C23.416 24.9021 23.8166 26.4369 23.8166 28.3107V29.9194C23.8166 31.0658 23.6872 32.0643 23.4283 32.9149C23.1818 33.7532 22.8305 34.4744 22.3743 35.0784C21.9182 35.6701 21.3758 36.1571 20.7471 36.5392C20.1184 36.9214 19.4281 37.2234 18.6761 37.4453C17.9241 37.6548 17.1229 37.8028 16.2723 37.8891C15.4217 37.963 14.5464 38 13.6465 38H8.61694V6.41716ZM14.2382 19.9342C14.8793 19.9342 15.4648 19.8602 15.9949 19.7123C16.525 19.552 16.9749 19.3116 17.3448 18.9911C17.7269 18.6583 18.0166 18.233 18.2138 17.7152C18.4234 17.1852 18.5282 16.5503 18.5282 15.8107V14.5163C18.5282 13.7766 18.4542 13.1233 18.3063 12.5562C18.1584 11.9892 17.9118 11.5084 17.5666 11.1139C17.2338 10.7194 16.79 10.4236 16.2353 10.2263C15.6929 10.0168 15.0272 9.91198 14.2382 9.91198H13.3137V19.9342H14.2382ZM14.682 34.6716C15.3231 34.6716 15.9024 34.5915 16.4202 34.4312C16.9503 34.2586 17.4002 33.9998 17.77 33.6546C18.1522 33.2971 18.4419 32.8471 18.6391 32.3047C18.8487 31.7623 18.9535 31.1213 18.9535 30.3817V27.9223C18.9535 27.1827 18.8795 26.5293 18.7316 25.9623C18.5837 25.3829 18.3371 24.9021 17.9919 24.52C17.6591 24.1255 17.2215 23.8296 16.6791 23.6324C16.1367 23.4228 15.471 23.318 14.682 23.318H13.3137V34.6716H14.682ZM27.9956 6.41716H39.7005V10.1893H32.7848V19.6383H38.1288V23.4105H32.7848V34.2278H39.8854V38H27.9956V6.41716ZM46.2649 10.1893H41.1798V6.41716H56.1206V10.1893H51.0541V38H46.2649V10.1893Z" fill="white"/>
</svg>
