<svg width="96" height="48" viewBox="0 0 96 48" fill="none" xmlns="http://www.w3.org/2000/svg">
<rect x="1" y="6" width="74" height="40.75" rx="9" fill="#06039F" stroke="white" stroke-width="2"/>
<rect x="2" y="2" width="74" height="40.75" rx="9" fill="#0602BA" stroke="white" stroke-width="2"/>
<path d="M15.4217 38.2774C14.9286 38.2774 14.3923 38.2342 13.8129 38.1479C13.2459 38.074 12.6727 37.9075 12.0933 37.6487C11.5262 37.3898 10.9776 37.0261 10.4476 36.5577C9.92981 36.0769 9.46753 35.4482 9.06073 34.6716C8.66625 33.895 8.34574 32.9396 8.09919 31.8055C7.86497 30.659 7.74786 29.2968 7.74786 27.7189V16.5318C7.74786 14.9416 7.87113 13.5856 8.11768 12.4638C8.36423 11.3296 8.69091 10.3804 9.09771 9.61612C9.50451 8.8395 9.97296 8.22313 10.503 7.76701C11.0331 7.3109 11.5817 6.96573 12.1487 6.73151C12.7158 6.48496 13.2767 6.3247 13.8314 6.25074C14.3985 6.17677 14.9224 6.13979 15.4032 6.13979C16.6606 6.13979 17.7084 6.31854 18.5467 6.67603C19.3973 7.0212 20.0753 7.50197 20.5807 8.11834C21.0984 8.72239 21.4621 9.43121 21.6717 10.2448C21.8936 11.0584 22.0045 11.9214 22.0045 12.8336C22.0045 13.5116 21.9675 14.1403 21.8936 14.7197C21.8319 15.2867 21.7333 15.9154 21.5977 16.6058H17.7146V14.997C17.7146 13.2589 17.5235 11.9583 17.1413 11.0954C16.7592 10.2325 16.1983 9.80103 15.4587 9.80103C15.0149 9.80103 14.6266 9.88733 14.2937 10.0599C13.9609 10.2325 13.6835 10.5284 13.4616 10.9475C13.2397 11.3543 13.0671 11.8967 12.9439 12.5747C12.8329 13.2527 12.7774 14.0971 12.7774 15.108V29.5311C12.7774 30.5173 12.8206 31.337 12.9069 31.9904C13.0055 32.6437 13.1596 33.1677 13.3692 33.5621C13.5787 33.9566 13.8499 34.2401 14.1828 34.4127C14.5279 34.573 14.9409 34.6531 15.4217 34.6531C15.7299 34.6531 16.0257 34.5853 16.3092 34.4497C16.5928 34.3018 16.8393 34.0799 17.0489 33.784C17.2708 33.4758 17.4434 33.0937 17.5666 32.6376C17.7022 32.1691 17.77 31.6206 17.77 30.9919V27.9038H22.1524V30.8254C22.1524 33.3649 21.5731 35.2387 20.4143 36.4467C19.2555 37.6548 17.5913 38.265 15.4217 38.2774ZM29.401 6.41716H34.9113L40.7545 38H35.9098L35.0408 32.3417H29.2715L28.4394 38H23.5763L29.401 6.41716ZM34.486 28.7359L32.2671 13H32.0637L29.8263 28.7359H34.486ZM43.824 6.41716H48.6132V34.2278H55.1406V38H43.824V6.41716ZM58.1732 6.41716H62.9624V34.2278H69.4897V38H58.1732V6.41716Z" fill="white"/>
</svg>
