<svg width="676" height="317" viewBox="0 0 676 317" fill="none" xmlns="http://www.w3.org/2000/svg">
<rect x="5" y="33" width="658" height="279" rx="45" fill="#06039F" stroke="white" stroke-width="10"/>
<rect x="13" y="9" width="658" height="279" rx="45" fill="#0602BA" stroke="white" stroke-width="10"/>
<path d="M104.25 259.875C100.917 259.875 97.2917 259.583 93.375 259C89.5417 258.5 85.6667 257.375 81.75 255.625C77.9167 253.875 74.2083 251.417 70.625 248.25C67.125 245 64 240.75 61.25 235.5C58.5833 230.25 56.4167 223.792 54.75 216.125C53.1667 208.375 52.375 199.167 52.375 188.5V112.875C52.375 102.125 53.2083 92.9583 54.875 85.375C56.5417 77.7083 58.75 71.2917 61.5 66.125C64.25 60.875 67.4167 56.7083 71 53.625C74.5833 50.5417 78.2917 48.2083 82.125 46.625C85.9583 44.9583 89.75 43.875 93.5 43.375C97.3333 42.875 100.875 42.625 104.125 42.625C112.625 42.625 119.708 43.8333 125.375 46.25C131.125 48.5833 135.708 51.8333 139.125 56C142.625 60.0833 145.083 64.875 146.5 70.375C148 75.875 148.75 81.7083 148.75 87.875C148.75 92.4583 148.5 96.7083 148 100.625C147.583 104.458 146.917 108.708 146 113.375H119.75V102.5C119.75 90.75 118.458 81.9583 115.875 76.125C113.292 70.2917 109.5 67.375 104.5 67.375C101.5 67.375 98.875 67.9583 96.625 69.125C94.375 70.2917 92.5 72.2917 91 75.125C89.5 77.875 88.3333 81.5417 87.5 86.125C86.75 90.7083 86.375 96.4167 86.375 103.25V200.75C86.375 207.417 86.6667 212.958 87.25 217.375C87.9167 221.792 88.9583 225.333 90.375 228C91.7917 230.667 93.625 232.583 95.875 233.75C98.2083 234.833 101 235.375 104.25 235.375C106.333 235.375 108.333 234.917 110.25 234C112.167 233 113.833 231.5 115.25 229.5C116.75 227.417 117.917 224.833 118.75 221.75C119.667 218.583 120.125 214.875 120.125 210.625V189.75H149.75V209.5C149.75 226.667 145.833 239.333 138 247.5C130.167 255.667 118.917 259.792 104.25 259.875ZM175.25 44.5H207.625V133.875H246V44.5H278.375V258H246V159.375H207.625V258H175.25V44.5ZM315.25 44.5H394.375V70H347.625V133.875H383.75V159.375H347.625V232.5H395.625V258H315.25V44.5ZM465 259.875C461.667 259.875 458.042 259.583 454.125 259C450.292 258.5 446.417 257.375 442.5 255.625C438.667 253.875 434.958 251.417 431.375 248.25C427.875 245 424.75 240.75 422 235.5C419.333 230.25 417.167 223.792 415.5 216.125C413.917 208.375 413.125 199.167 413.125 188.5V112.875C413.125 102.125 413.958 92.9583 415.625 85.375C417.292 77.7083 419.5 71.2917 422.25 66.125C425 60.875 428.167 56.7083 431.75 53.625C435.333 50.5417 439.042 48.2083 442.875 46.625C446.708 44.9583 450.5 43.875 454.25 43.375C458.083 42.875 461.625 42.625 464.875 42.625C473.375 42.625 480.458 43.8333 486.125 46.25C491.875 48.5833 496.458 51.8333 499.875 56C503.375 60.0833 505.833 64.875 507.25 70.375C508.75 75.875 509.5 81.7083 509.5 87.875C509.5 92.4583 509.25 96.7083 508.75 100.625C508.333 104.458 507.667 108.708 506.75 113.375H480.5V102.5C480.5 90.75 479.208 81.9583 476.625 76.125C474.042 70.2917 470.25 67.375 465.25 67.375C462.25 67.375 459.625 67.9583 457.375 69.125C455.125 70.2917 453.25 72.2917 451.75 75.125C450.25 77.875 449.083 81.5417 448.25 86.125C447.5 90.7083 447.125 96.4167 447.125 103.25V200.75C447.125 207.417 447.417 212.958 448 217.375C448.667 221.792 449.708 225.333 451.125 228C452.542 230.667 454.375 232.583 456.625 233.75C458.958 234.833 461.75 235.375 465 235.375C467.083 235.375 469.083 234.917 471 234C472.917 233 474.583 231.5 476 229.5C477.5 227.417 478.667 224.833 479.5 221.75C480.417 218.583 480.875 214.875 480.875 210.625V189.75H510.5V209.5C510.5 226.667 506.583 239.333 498.75 247.5C490.917 255.667 479.667 259.792 465 259.875ZM536 44.5H568.375V137.75H569.375L606.375 44.5H638.625L597.375 144.625L643.25 258H608.625L569.375 156.375H568.375V258H536V44.5Z" fill="white"/>
</svg>
