<svg width="479" height="317" viewBox="0 0 479 317" fill="none" xmlns="http://www.w3.org/2000/svg">
<rect x="5" y="33" width="463" height="279" rx="45" fill="#AA1602" stroke="white" stroke-width="10"/>
<rect x="11" y="9" width="463" height="279" rx="45" fill="#BA1802" stroke="white" stroke-width="10"/>
<path d="M58.25 44.5H137.375V70H90.625V133.875H126.75V159.375H90.625V232.5H138.625V258H58.25V44.5ZM186.875 150.5L147.875 44.5H182.5L202.375 112.75H203.625L223.5 44.5H257L217.875 150.625L257 258H223.625L203.375 189.375H201.25L180.125 258H147.875L186.875 150.5ZM279.5 44.5H311.875V258H279.5V44.5ZM368.25 70H333.875V44.5H434.875V70H400.625V258H368.25V70Z" fill="white"/>
</svg>
