<svg width="96" height="48" viewBox="0 0 96 48" fill="none" xmlns="http://www.w3.org/2000/svg">
<rect x="1" y="6" width="90" height="40.75" rx="9" fill="#9F990C" stroke="white" stroke-width="2"/>
<rect x="2" y="2" width="90" height="40.75" rx="9" fill="#BAB202" stroke="white" stroke-width="2"/>
<path d="M8.61694 6.41716H13.8129C14.4047 6.41716 15.0519 6.44181 15.7545 6.49112C16.4695 6.54043 17.1783 6.66371 17.881 6.86095C18.596 7.04586 19.2802 7.32939 19.9335 7.71154C20.5992 8.09369 21.1847 8.6176 21.6902 9.28328C22.2079 9.94896 22.6209 10.7872 22.9291 11.7981C23.2373 12.7966 23.3913 14.0108 23.3913 15.4408V16.2359C23.3913 18.6398 23.0462 20.5999 22.3558 22.1161C21.6655 23.6201 20.6485 24.7049 19.3048 25.3706L24.3714 38H19.3048L15.1073 26.1842H13.3137V38H8.61694V6.41716ZM14.0348 22.7263C14.8731 22.7263 15.5819 22.6339 16.1613 22.449C16.7407 22.2641 17.2091 21.9559 17.5666 21.5244C17.9241 21.0806 18.183 20.5012 18.3433 19.7862C18.5035 19.0589 18.5837 18.1652 18.5837 17.105V14.6087C18.5837 13.7951 18.5097 13.0925 18.3618 12.5007C18.2138 11.909 17.9611 11.4221 17.6036 11.0399C17.2585 10.6578 16.7962 10.3743 16.2168 10.1893C15.6374 10.0044 14.9101 9.91198 14.0348 9.91198H13.3137V22.7263H14.0348ZM31.472 6.41716H36.9823L42.8255 38H37.9808L37.1118 32.3417H31.3425L30.5104 38H25.6473L31.472 6.41716ZM36.557 28.7359L34.3381 13H34.1347L31.8973 28.7359H36.557ZM45.895 6.41716H50.6842V38H45.895V6.41716ZM54.8817 31.6021C54.8817 30.9241 54.9187 30.3015 54.9927 29.7345C55.079 29.1551 55.2022 28.5325 55.3625 27.8669H59.0792V29.4016C59.0792 30.2522 59.1285 31.0042 59.2271 31.6575C59.3381 32.3109 59.5107 32.8656 59.7449 33.3217C59.9914 33.7655 60.312 34.1045 60.7064 34.3388C61.1132 34.5607 61.6063 34.6716 62.1857 34.6716C63.098 34.6716 63.7945 34.425 64.2752 33.932C64.756 33.4265 64.9964 32.693 64.9964 31.7315C64.9964 31.2384 64.9594 30.7885 64.8854 30.3817C64.8238 29.9625 64.7067 29.5496 64.5341 29.1428C64.3738 28.7359 64.152 28.3107 63.8684 27.8669C63.5849 27.4107 63.2212 26.9053 62.7774 26.3506L57.7848 20.4149C56.8973 19.2808 56.2131 18.1405 55.7323 16.9941C55.2516 15.8353 55.0112 14.6026 55.0112 13.2959C55.0112 12.248 55.1714 11.2865 55.4919 10.4112C55.8248 9.536 56.2994 8.78402 56.9158 8.15532C57.5321 7.5143 58.2903 7.0212 59.1902 6.67603C60.1024 6.31854 61.1317 6.13979 62.2782 6.13979C63.6712 6.13979 64.83 6.33703 65.7545 6.73151C66.6914 7.12599 67.4372 7.64374 67.9919 8.28476C68.5467 8.92579 68.935 9.64694 69.1569 10.4482C69.3911 11.2372 69.5082 12.0323 69.5082 12.8336C69.5082 13.5116 69.4527 14.1403 69.3418 14.7197C69.2432 15.2867 69.1261 15.9154 68.9905 16.6058H65.2922V15.108C65.2922 13.4315 65.0519 12.1494 64.5711 11.2618C64.0903 10.3619 63.3075 9.91198 62.2227 9.91198C61.3228 9.91198 60.651 10.1647 60.2072 10.6701C59.7634 11.1632 59.5415 11.8289 59.5415 12.6672C59.5415 13.1109 59.5723 13.5116 59.634 13.8691C59.7079 14.2266 59.8065 14.5594 59.9298 14.8676C60.0654 15.1635 60.2257 15.4532 60.4106 15.7367C60.5955 16.0202 60.8051 16.3161 61.0393 16.6243L66.6051 23.355C67.616 24.6741 68.3926 25.9438 68.935 27.1642C69.4774 28.3723 69.7486 29.6543 69.7486 31.0104C69.7486 32.1321 69.5698 33.143 69.2124 34.0429C68.8672 34.9428 68.3679 35.7071 67.7146 36.3358C67.0612 36.9645 66.2723 37.4514 65.3477 37.7966C64.4232 38.1294 63.3815 38.2959 62.2227 38.2959C60.7927 38.2959 59.6031 38.1048 58.6539 37.7226C57.717 37.3405 56.9651 36.8351 56.398 36.2064C55.8433 35.5777 55.4488 34.8627 55.2146 34.0614C54.9927 33.2601 54.8817 32.4403 54.8817 31.6021ZM73.7797 6.41716H85.4845V10.1893H78.5689V19.6383H83.9128V23.4105H78.5689V34.2278H85.6695V38H73.7797V6.41716Z" fill="white"/>
</svg>
