<svg width="662" height="317" viewBox="0 0 662 317" fill="none" xmlns="http://www.w3.org/2000/svg">
<rect x="5" y="33" width="636" height="279" rx="45" fill="#AFA700" stroke="white" stroke-width="10"/>
<rect x="13" y="9" width="636" height="279" rx="45" fill="#BAB202" stroke="white" stroke-width="10"/>
<path d="M50 214.75C50 210.167 50.25 205.958 50.75 202.125C51.3333 198.208 52.1667 194 53.25 189.5H78.375V199.875C78.375 205.625 78.7083 210.708 79.375 215.125C80.125 219.542 81.2917 223.292 82.875 226.375C84.5417 229.375 86.7083 231.667 89.375 233.25C92.125 234.75 95.4583 235.5 99.375 235.5C105.542 235.5 110.25 233.833 113.5 230.5C116.75 227.083 118.375 222.125 118.375 215.625C118.375 212.292 118.125 209.25 117.625 206.5C117.208 203.667 116.417 200.875 115.25 198.125C114.167 195.375 112.667 192.5 110.75 189.5C108.833 186.417 106.375 183 103.375 179.25L69.625 139.125C63.625 131.458 59 123.75 55.75 116C52.5 108.167 50.875 99.8333 50.875 91C50.875 83.9167 51.9583 77.4167 54.125 71.5C56.375 65.5833 59.5833 60.5 63.75 56.25C67.9167 51.9167 73.0417 48.5833 79.125 46.25C85.2917 43.8333 92.25 42.625 100 42.625C109.417 42.625 117.25 43.9583 123.5 46.625C129.833 49.2917 134.875 52.7917 138.625 57.125C142.375 61.4583 145 66.3333 146.5 71.75C148.083 77.0833 148.875 82.4583 148.875 87.875C148.875 92.4583 148.5 96.7083 147.75 100.625C147.083 104.458 146.292 108.708 145.375 113.375H120.375V103.25C120.375 91.9167 118.75 83.25 115.5 77.25C112.25 71.1667 106.958 68.125 99.625 68.125C93.5417 68.125 89 69.8333 86 73.25C83 76.5833 81.5 81.0833 81.5 86.75C81.5 89.75 81.7083 92.4583 82.125 94.875C82.625 97.2917 83.2917 99.5417 84.125 101.625C85.0417 103.625 86.125 105.583 87.375 107.5C88.625 109.417 90.0417 111.417 91.625 113.5L129.25 159C136.083 167.917 141.333 176.5 145 184.75C148.667 192.917 150.5 201.583 150.5 210.75C150.5 218.333 149.292 225.167 146.875 231.25C144.542 237.333 141.167 242.5 136.75 246.75C132.333 251 127 254.292 120.75 256.625C114.5 258.875 107.458 260 99.625 260C89.9583 260 81.9167 258.708 75.5 256.125C69.1667 253.542 64.0833 250.125 60.25 245.875C56.5 241.625 53.8333 236.792 52.25 231.375C50.75 225.958 50 220.417 50 214.75ZM197.5 70H163.125V44.5H264.125V70H229.875V258H197.5V70ZM309.5 44.5H346.75L386.25 258H353.5L347.625 219.75H308.625L303 258H270.125L309.5 44.5ZM343.875 195.375L328.875 89H327.5L312.375 195.375H343.875ZM407 44.5H442.125C446.125 44.5 450.5 44.6667 455.25 45C460.083 45.3333 464.875 46.1667 469.625 47.5C474.458 48.75 479.083 50.6667 483.5 53.25C488 55.8333 491.958 59.375 495.375 63.875C498.875 68.375 501.667 74.0417 503.75 80.875C505.833 87.625 506.875 95.8333 506.875 105.5V110.875C506.875 127.125 504.542 140.375 499.875 150.625C495.208 160.792 488.333 168.125 479.25 172.625L513.5 258H479.25L450.875 178.125H438.75V258H407V44.5ZM443.625 154.75C449.292 154.75 454.083 154.125 458 152.875C461.917 151.625 465.083 149.542 467.5 146.625C469.917 143.625 471.667 139.708 472.75 134.875C473.833 129.958 474.375 123.917 474.375 116.75V99.875C474.375 94.375 473.875 89.625 472.875 85.625C471.875 81.625 470.167 78.3333 467.75 75.75C465.417 73.1667 462.292 71.25 458.375 70C454.458 68.75 449.542 68.125 443.625 68.125H438.75V154.75H443.625ZM557.75 70H523.375V44.5H624.375V70H590.125V258H557.75V70Z" fill="white"/>
</svg>
